# xmcd CD database file
#
# Track frame offsets:
#	150
#	21905
#	65570
#	82440
#	110287
#	131761
#	198731
#	227147
#	255013
#	288470
#	307138
#	331654
#
# Disc length: 4691 seconds
#
# Revision: 0
# Processed by: cddbd v1.5.2PL0 Copyright (c) Steve Scherf et al.
# Submitted via: CDex 1.81
#
DISCID=b012510c
DTITLE=Various Artist - Various Jazz
DYEAR=1900
DGENRE=Jazz
TTITLE0=Monty Alexander - I shot the sheriff
TTITLE1=Monty Alexander - Exodus
TTITLE2=Bill Evans feat. Les McCann - U sure look good to me
TTITLE3=Bill Evans feat. Les McCann - Compared to what
TTITLE4=Bill Evans feat. Les McCann - The shorty shuffle
TTITLE5=Shakty feat. John McLaughlin - Hindu
TTITLE6=Shakty feat. John McLaughlin - 5 in the morning 6 in the afternoon
TTITLE7=Karizma - I'm tweeked
TTITLE8=Karizma - E minor shuffle
TTITLE9=Tribal Tech - Sjolenska
TTITLE10=Tribal Tech - Face first
TTITLE11=Kenny Wayne Shepherd - Last goodbye
EXTD=
EXTT0=
EXTT1=
EXTT2=
EXTT3=
EXTT4=
EXTT5=
EXTT6=
EXTT7=
EXTT8=
EXTT9=
EXTT10=
EXTT11=
PLAYORDER=
